<?xml version="1.0" encoding="UTF-8"?>
<svg xmlns="http://www.w3.org/2000/svg" xmlns:xlink="http://www.w3.org/1999/xlink" width="261.9pt" height="238.78pt" viewBox="0 0 261.9 238.78" version="1.1">
<defs>
<clipPath id="clip1">
  <path d="M 251 176 L 261.898438 176 L 261.898438 187 L 251 187 Z M 251 176 "/>
</clipPath>
<clipPath id="clip2">
  <path d="M 30 38 L 231 38 L 231 238.78125 L 30 238.78125 Z M 30 38 "/>
</clipPath>
</defs>
<g id="surface1">
<path style=" stroke:none;fill-rule:nonzero;fill:rgb(0%,40.783691%,69.802856%);fill-opacity:1;" d="M 189.898438 22.671875 C 183.636719 22.671875 178.5625 27.746094 178.5625 34.003906 C 178.5625 40.265625 183.640625 45.339844 189.898438 45.339844 C 196.15625 45.339844 201.230469 40.265625 201.230469 34.007813 C 201.230469 27.746094 196.15625 22.671875 189.898438 22.671875 "/>
<g clip-path="url(#clip1)" clip-rule="nonzero">
<path style=" stroke:none;fill-rule:nonzero;fill:rgb(0%,40.783691%,69.802856%);fill-opacity:1;" d="M 256.898438 176.003906 C 254.136719 176.003906 251.898438 178.242188 251.898438 181.003906 C 251.898438 183.765625 254.136719 186.007813 256.898438 186.007813 C 259.660156 186.007813 261.898438 183.769531 261.898438 181.003906 C 261.898438 178.242188 259.660156 176.003906 256.898438 176.003906 "/>
</g>
<path style=" stroke:none;fill-rule:nonzero;fill:rgb(0%,40.783691%,69.802856%);fill-opacity:1;" d="M 152.230469 0.00390625 C 142.105469 0.00390625 133.898438 8.210938 133.898438 18.335938 C 133.898438 28.464844 142.105469 36.671875 152.230469 36.671875 C 162.355469 36.675781 170.5625 28.464844 170.5625 18.339844 C 170.5625 8.214844 162.355469 0.00390625 152.230469 0.00390625 "/>
<path style=" stroke:none;fill-rule:nonzero;fill:rgb(0%,40.783691%,69.802856%);fill-opacity:1;" d="M 11.566406 150.773438 C 5.175781 150.773438 0 155.949219 0 162.335938 C 0 168.726563 5.179688 173.902344 11.566406 173.902344 C 17.953125 173.902344 23.128906 168.726563 23.128906 162.339844 C 23.128906 155.953125 17.953125 150.773438 11.566406 150.773438 "/>
<path style=" stroke:none;fill-rule:nonzero;fill:rgb(0%,40.783691%,69.802856%);fill-opacity:1;" d="M 22.898438 140.753906 C 21.101563 140.753906 19.648438 142.210938 19.648438 144.003906 C 19.648438 145.800781 21.101563 147.257813 22.898438 147.257813 C 24.691406 147.257813 26.148438 145.800781 26.148438 144.003906 C 26.148438 142.210938 24.691406 140.753906 22.898438 140.753906 "/>
<path style=" stroke:none;fill-rule:nonzero;fill:rgb(0%,40.783691%,69.802856%);fill-opacity:1;" d="M 179.273438 13.796875 C 177.777344 13.796875 176.5625 15.007813 176.5625 16.503906 C 176.5625 18.003906 177.777344 19.214844 179.273438 19.214844 C 180.769531 19.214844 181.980469 18.003906 181.980469 16.503906 C 181.980469 15.007813 180.769531 13.796875 179.273438 13.796875 "/>
<path style=" stroke:none;fill-rule:nonzero;fill:rgb(0%,40.783691%,69.802856%);fill-opacity:1;" d="M 252.898438 186.753906 C 252.207031 186.753906 251.648438 187.316406 251.648438 188.003906 C 251.648438 188.695313 252.207031 189.257813 252.898438 189.257813 C 253.589844 189.257813 254.148438 188.695313 254.148438 188.003906 C 254.148438 187.316406 253.589844 186.753906 252.898438 186.753906 "/>
<path style=" stroke:none;fill-rule:nonzero;fill:rgb(0%,40.783691%,69.802856%);fill-opacity:1;" d="M 9.898438 144.753906 C 9.207031 144.753906 8.648438 145.316406 8.648438 146.003906 C 8.648438 146.695313 9.207031 147.257813 9.898438 147.257813 C 10.589844 147.257813 11.148438 146.695313 11.148438 146.003906 C 11.148438 145.316406 10.589844 144.753906 9.898438 144.753906 "/>
<g clip-path="url(#clip2)" clip-rule="nonzero">
<path style=" stroke:none;fill-rule:nonzero;fill:rgb(0%,40.783691%,69.802856%);fill-opacity:1;" d="M 190.898438 134.960938 C 188.898438 131.085938 183.316406 127.503906 176.605469 130.378906 C 169.898438 133.253906 169.230469 142.003906 169.230469 142.003906 L 192.898438 142.003906 C 192.441406 137.292969 190.898438 134.960938 190.898438 134.960938 M 193.148438 152.542969 C 186.648438 159.835938 177.480469 158.378906 173.355469 154.253906 C 169.230469 150.128906 169.230469 144.878906 169.230469 144.878906 L 196.191406 144.792969 C 196.691406 140.503906 195.148438 136.378906 195.148438 136.378906 C 189.566406 122.835938 176.816406 127.171875 176.816406 127.171875 C 165.273438 131.335938 165.855469 143.878906 165.855469 143.878906 C 166.191406 155.628906 175.316406 159.253906 175.316406 159.253906 C 188.066406 164.167969 195.398438 154.460938 195.398438 154.460938 Z M 128.304688 146.210938 C 128.304688 147.335938 128.429688 149.398438 128.429688 149.398438 C 129.554688 157.242188 134.898438 160.773438 142.304688 160.585938 C 149.710938 160.398438 153.117188 153.898438 153.117188 153.898438 L 153.117188 159.835938 L 156.210938 159.835938 L 156.210938 127.273438 L 153.117188 127.273438 L 153.085938 146.304688 C 153.023438 149.367188 152.148438 150.929688 152.148438 150.929688 C 151.148438 153.523438 148.742188 156.554688 143.992188 157.523438 C 139.242188 158.492188 135.960938 156.179688 135.960938 156.179688 C 131.179688 153.460938 131.4375 146.460938 131.4375 146.460938 L 131.4375 127.273438 L 128.273438 127.273438 Z M 116.585938 113.210938 L 113.460938 113.210938 L 113.460938 159.863281 L 116.585938 159.863281 Z M 70.914063 156.792969 L 88.023438 156.753906 C 88.023438 156.753906 98.023438 157.128906 99.5625 148.960938 C 99.5625 148.960938 100.773438 142.167969 93.523438 139.835938 C 93.523438 139.835938 90.394531 138.871094 86.0625 138.832031 L 70.914063 138.832031 Z M 85.105469 135.753906 C 86.773438 135.835938 89.355469 135.378906 89.355469 135.378906 C 98.523438 133.546875 97.105469 125.171875 97.105469 125.171875 C 95.941406 118.503906 87.398438 118.1875 87.398438 118.1875 L 70.914063 118.1875 L 70.914063 135.765625 Z M 67.589844 115.117188 L 67.589844 159.863281 L 87.398438 159.835938 C 87.398438 159.835938 100.148438 160.171875 102.730469 150.421875 C 105.316406 140.671875 95.242188 137.199219 92.964844 136.851563 C 92.964844 136.851563 99.3125 134.460938 100.273438 128.835938 C 101.230469 123.210938 99.480469 119.585938 94.691406 116.921875 C 94.691406 116.921875 91.230469 115.210938 86.9375 115.085938 Z M 166.566406 221.972656 C 165.441406 221.972656 164.53125 222.882813 164.53125 224.003906 C 164.53125 225.128906 165.441406 226.039063 166.566406 226.039063 C 167.6875 226.039063 168.597656 225.128906 168.597656 224.003906 C 168.597656 222.882813 167.6875 221.972656 166.566406 221.972656 M 130.398438 73.703125 C 129.882813 73.703125 129.46875 74.117188 129.46875 74.628906 C 129.46875 75.144531 129.882813 75.558594 130.398438 75.558594 C 130.910156 75.558594 131.324219 75.144531 131.324219 74.628906 C 131.324219 74.117188 130.910156 73.703125 130.398438 73.703125 M 155.511719 65.621094 C 152.65625 65.621094 150.339844 67.933594 150.339844 70.792969 C 150.339844 73.648438 152.65625 75.964844 155.511719 75.964844 C 158.367188 75.964844 160.683594 73.648438 160.683594 70.792969 C 160.683594 67.933594 158.367188 65.621094 155.511719 65.621094 M 186.898438 91.835938 C 185.261719 91.835938 183.933594 93.164063 183.933594 94.800781 C 183.933594 96.4375 185.261719 97.765625 186.898438 97.765625 C 188.535156 97.765625 189.859375 96.4375 189.859375 94.800781 C 189.859375 93.164063 188.535156 91.835938 186.898438 91.835938 M 161.222656 83.777344 C 160.417969 83.777344 159.769531 84.425781 159.769531 85.226563 C 159.769531 86.03125 160.417969 86.679688 161.222656 86.679688 C 162.023438 86.679688 162.671875 86.03125 162.671875 85.226563 C 162.671875 84.425781 162.023438 83.777344 161.222656 83.777344 M 69.398438 198.421875 C 66.957031 198.421875 64.980469 200.398438 64.980469 202.839844 C 64.980469 205.277344 66.957031 207.257813 69.398438 207.257813 C 71.835938 207.257813 73.8125 205.28125 73.8125 202.839844 C 73.8125 200.402344 71.835938 198.421875 69.398438 198.421875 M 58.898438 197.753906 C 58.207031 197.753906 57.648438 198.316406 57.648438 199.003906 C 57.648438 199.695313 58.207031 200.257813 58.898438 200.257813 C 59.589844 200.257813 60.148438 199.695313 60.148438 199.003906 C 60.148438 198.316406 59.589844 197.753906 58.898438 197.753906 M 176.1875 215.246094 C 174.226563 215.246094 172.636719 216.835938 172.636719 218.796875 C 172.636719 220.761719 174.226563 222.347656 176.1875 222.347656 C 178.148438 222.347656 179.738281 220.761719 179.738281 218.796875 C 179.738281 216.835938 178.148438 215.246094 176.1875 215.246094 M 161.898438 213.753906 C 161.207031 213.753906 160.648438 214.316406 160.648438 215.003906 C 160.648438 215.695313 161.207031 216.257813 161.898438 216.257813 C 162.589844 216.257813 163.148438 215.695313 163.148438 215.003906 C 163.148438 214.316406 162.589844 213.753906 161.898438 213.753906 M 230.035156 138.78125 C 230.035156 194.007813 185.261719 238.78125 130.035156 238.78125 C 74.804688 238.78125 30.035156 194.007813 30.035156 138.78125 C 30.035156 83.550781 74.804688 38.78125 130.035156 38.78125 C 185.261719 38.78125 230.035156 83.550781 230.035156 138.78125 "/>
</g>
</g>
</svg>
