<svg width="28" height="20" fill="none" xmlns="http://www.w3.org/2000/svg"><rect width="28" height="20" rx="2" fill="#fff"/><mask id="a" maskUnits="userSpaceOnUse" x="0" y="0" width="28" height="20"><rect width="28" height="20" rx="2" fill="#fff"/></mask><g mask="url(#a)"><path fill="#E92434" d="M0 0h28v20H0z"/><path fill-rule="evenodd" clip-rule="evenodd" d="M19.02 10.768l-1.224 1.485.083-1.923-1.79-.706 1.854-.515.118-1.921 1.063 1.605 1.864-.482-1.198 1.507 1.034 1.624-1.804-.674z" fill="#fff"/><path fill-rule="evenodd" clip-rule="evenodd" d="M17.402 13.684a6 6 0 110-7.368 5.21 5.21 0 00-3.07-.983c-2.76 0-5 2.09-5 4.667s2.24 4.667 5 4.667a5.21 5.21 0 003.07-.983z" fill="#fff"/></g></svg>