<svg width="96" height="96" fill="none" xmlns="http://www.w3.org/2000/svg"><path d="M.222 65.76c.326.61.961.99 1.653.99h9.375v27.375c0 1.035.84 1.875 1.875 1.875h69.75c1.036 0 1.875-.84 1.875-1.875V66.75h9.375a1.875 1.875 0 001.56-2.915L84.435 46.96a1.875 1.875 0 00-1.56-.835H75.75a1.875 1.875 0 100 3.75h6.121L90.621 63H60.255l-8.75-13.125h7.371a1.875 1.875 0 100-3.75h-45.75c-.627 0-1.212.313-1.56.835L.315 63.835a1.875 1.875 0 00-.093 1.925zM15 66.75h21.75c.627 0 1.212-.313 1.56-.835l7.815-11.722V92.25H15v-25.5zm42.69-.835c.348.522.933.835 1.56.835H81v25.5H49.875V54.193l7.815 11.722zm-43.561-16.04h30.368L35.747 63H5.377l8.75-13.125z" fill="#E42D3A"/><path d="M67.313 49.875a1.875 1.875 0 100-3.75 1.875 1.875 0 000 3.75z" fill="#E42D3A"/><path d="M70.455 34C68.172 23.702 58.985 16 48 16c-10.986 0-20.172 7.702-22.455 18M37 2v4m24-4v4" stroke="#E42D3A" stroke-width="4" stroke-linecap="round" stroke-linejoin="round"/></svg>