<svg width="24" height="24" fill="none" xmlns="http://www.w3.org/2000/svg"><path d="M5.863 14.274h0l.002.002 6.037 7.701.099.126.098-.126 6.03-7.691h0l.001-.002.008-.01h0c1.5-1.999 1.92-4.56 1.157-7.023-.718-2.319-2.582-4.199-4.868-4.907l-.037.12.037-.12C12 1.592 9.464 2 7.476 3.466A7.788 7.788 0 005.19 6.144a7.724 7.724 0 00-.857 3.533c0 1.672.53 3.262 1.53 4.597zm12.085-6.606c.627 2.029.286 4.124-.933 5.753L12 19.817l-5.014-6.396a6.203 6.203 0 01-1.244-3.744c0-1.992.961-3.89 2.57-5.076 1.622-1.196 3.698-1.529 5.697-.91 1.845.572 3.355 2.096 3.938 3.977z" fill="#FAFAFA" stroke="#FAFAFA" stroke-width=".25"/><path d="M12.001 5.49a4.191 4.191 0 00-4.187 4.187 4.191 4.191 0 004.187 4.186 4.191 4.191 0 004.187-4.186A4.191 4.191 0 0012 5.49zm0 6.963a2.78 2.78 0 01-2.776-2.776A2.78 2.78 0 0112 6.9a2.78 2.78 0 012.776 2.776A2.78 2.78 0 0112 12.452z" fill="#FAFAFA" stroke="#FAFAFA" stroke-width=".25"/></svg>