<svg width="24" height="24" fill="none" xmlns="http://www.w3.org/2000/svg"><path d="M3.455 20.756l-.107.106h1.567a5.31 5.31 0 003.778-1.593c1.048.272 2.219.42 3.34.42 3.055 0 5.638-.883 7.467-2.558a7.882 7.882 0 001.916-2.666 7.609 7.609 0 00.641-3.064c0-2.181-.907-4.211-2.552-5.715l-.042.046.042-.046c-1.827-1.67-4.412-2.549-7.471-2.549-2.432 0-4.667.685-6.464 1.983-1.654 1.194-2.845 2.856-3.353 4.682-.424 1.522-.354 3.071.202 4.479.553 1.397 1.58 2.616 2.983 3.544a3.325 3.325 0 01-.946 1.93l-1.001 1zm3.281-3.595l.001-.037-.03-.018-.293-.177c-2.596-1.566-3.692-4.099-2.946-6.778.79-2.84 3.741-5.715 8.566-5.715 2.738 0 5.017.766 6.595 2.208 1.374 1.256 2.13 2.945 2.13 4.757 0 1.681-.681 3.428-2.11 4.754-1.429 1.326-3.61 2.236-6.615 2.236-1.144 0-2.339-.17-3.365-.476l-.368-.11-.039-.012-.026.031-.248.293a4.102 4.102 0 01-1.67 1.188 4.69 4.69 0 00.41-1.803l-.063-.002.062.002.01-.341z" fill="#FAFAFA" stroke="#FAFAFA" stroke-width=".125"/><path fill="#FAFAFA" d="M7 8h10v1H7zm0 3h10v1H7zm0 3h6v1H7z"/></svg>