<svg width="66" height="68" fill="none" xmlns="http://www.w3.org/2000/svg"><path d="M.883 46.981h0c.27.504.795.819 1.367.819H8.2v17.95c0 .856.694 1.55 1.55 1.55h46.5a1.55 1.55 0 001.55-1.55V47.8h5.95a1.55 1.55 0 001.367-.819l-.265-.141.265.141a1.55 1.55 0 00-.077-1.59l-7.5-11.25s0 0 0 0a1.55 1.55 0 00-1.29-.691H51.5a1.55 1.55 0 100 3.1h3.92l5.434 8.15H41.33l-5.434-8.15h4.354a1.55 1.55 0 100-3.1H9.75a1.55 1.55 0 00-1.29.69s0 0 0 0L.96 45.39a1.55 1.55 0 00-.077 1.591zM11.3 47.8h14.2a1.55 1.55 0 001.29-.69l4.66-6.99V64.2H11.3V47.8zm27.91-.69c.288.431.772.69 1.29.69h14.2v16.4H34.55V40.12l4.66 6.99s0 0 0 0zM10.58 36.55h19.524L24.67 44.7H5.146l5.433-8.15z" fill="#fff" stroke="#fff" stroke-width=".6"/><path d="M45.875 36.55a1.55 1.55 0 100-3.1 1.55 1.55 0 000 3.1z" fill="#fff" stroke="#fff" stroke-width=".6"/><path d="M47.97 13.666c-1.523 6.866-7.647 12-14.97 12-7.324 0-13.449-5.134-14.97-12m8.304-11.333V9m16-6.667V9" stroke="#fff" stroke-width="4" stroke-linecap="round" stroke-linejoin="round"/></svg>